# xmcd
#
# Track frame offsets:
#	150
#	24987
#	44611
#	60116
#	77988
#	95242
#	114829
#	135249
#	150993
#	171250
#	189452
#	205669
#	227626
#	245648
# Disc length: 3520 seconds
# Revision: 8
# Processed by: cddbd v1.5.1PL2 Copyright (c) Steve Scherf et al.
#
# Submitted via: libkcddb 0.10
#
DISCID=aa0dbe0e
DTITLE=Ricardo Montaner - Éxitos
DYEAR=1993
DGENRE=Ballad
TTITLE0=Yo que te Amé
TTITLE1=Tan Enamorados
TTITLE2=Solo con un Beso
TTITLE3=Vamos a Dejarlo
TTITLE4=Será
TTITLE5=Me Va a Extrañar
TTITLE6=Vamos pa' la Conga
TTITLE7=Ojos Negros
TTITLE8=La Cima del Cielo
TTITLE9=Castillo Azul
TTITLE10=Necesito de tí
TTITLE11=Déjame Llorar
TTITLE12=A Dónde Va el Amor
TTITLE13=Un Mundo Ideal
EXTD=Rodven
EXTT0=I Who Loved you
EXTT1=So in Love
EXTT2=Just with a Kiss
EXTT3=
EXTT4=It Will Be
EXTT5=Unchain my Heart
EXTT6=Let's go to the Conga
EXTT7=Black Eyes
EXTT8=The Peak of the Sky
EXTT9=Blue Castle
EXTT10=I'm in Need of you
EXTT11=Let me Cry
EXTT12=Where Love Goes
EXTT13=An Ideal World
PLAYORDER=
